<svg width="48" height="48" viewBox="0 0 48 48" fill="none" xmlns="http://www.w3.org/2000/svg">
  <defs>
    <linearGradient id="iconGradient" x1="0%" y1="0%" x2="100%" y2="100%">
      <stop offset="0%" stop-color="#dc2626" stop-opacity="1" />
      <stop offset="100%" stop-color="#dc2626" stop-opacity="0.8" />
    </linearGradient>
    <filter id="glow">
      <feGaussianBlur stdDeviation="1.5" result="coloredBlur"/>
      <feMerge>
        <feMergeNode in="coloredBlur"/>
        <feMergeNode in="SourceGraphic"/>
      </feMerge>
    </filter>
  </defs>
  
  <!-- Main heartbeat/pulse line -->
  <path
    d="M 4 24 L 10 24 L 14 16 L 18 32 L 22 20 L 26 28 L 30 24 L 34 24 L 38 16 L 42 32 L 44 24"
    stroke="url(#iconGradient)"
    stroke-width="2.5"
    stroke-linecap="round"
    stroke-linejoin="round"
    fill="none"
    filter="url(#glow)"
  />
  
  <!-- Network nodes -->
  <circle cx="10" cy="24" r="2.5" fill="#dc2626" />
  <circle cx="14" cy="16" r="3" fill="#dc2626" opacity="0.9" />
  <circle cx="18" cy="32" r="2.5" fill="#dc2626" opacity="0.8" />
  <circle cx="22" cy="20" r="2.5" fill="#dc2626" opacity="0.9" />
  <circle cx="26" cy="28" r="3.5" fill="#dc2626" />
  <circle cx="34" cy="24" r="2.5" fill="#dc2626" />
  <circle cx="38" cy="16" r="3" fill="#dc2626" opacity="0.9" />
  <circle cx="42" cy="32" r="2.5" fill="#dc2626" opacity="0.8" />
  
  <!-- Connecting lines -->
  <path d="M 14 16 L 22 20" stroke="#dc2626" stroke-width="1" stroke-linecap="round" opacity="0.3" />
  <path d="M 22 20 L 26 28" stroke="#dc2626" stroke-width="1" stroke-linecap="round" opacity="0.3" />
  <path d="M 26 28 L 38 16" stroke="#dc2626" stroke-width="1" stroke-linecap="round" opacity="0.3" />
</svg>
